<?xml version="1.0" standalone="no"?>
<!DOCTYPE svg PUBLIC "-//W3C//DTD SVG 20010904//EN"
 "http://www.w3.org/TR/2001/REC-SVG-20010904/DTD/svg10.dtd">
<svg version="1.0" xmlns="http://www.w3.org/2000/svg"
 width="378.000000pt" height="378.000000pt" viewBox="0 0 378.000000 378.000000"
 preserveAspectRatio="xMidYMid meet">
<metadata>
Created by potrace 1.11, written by Peter Selinger 2001-2013
</metadata>
<g transform="translate(0.000000,378.000000) scale(0.100000,-0.100000)"
fill="#000000" stroke="none">
<path d="M953 3719 c-14 -7 -25 -24 -27 -43 -3 -17 -8 -548 -12 -1181 -3 -632
-7 -1283 -8 -1445 -2 -167 1 -307 7 -323 13 -39 48 -59 103 -59 37 0 52 6 73
26 l26 26 0 805 c0 443 2 805 5 805 3 0 11 -21 18 -47 15 -57 55 -189 122
-403 55 -174 140 -471 164 -570 30 -130 45 -196 51 -240 3 -25 8 -52 10 -60 4
-13 10 -58 20 -155 2 -16 4 -46 4 -66 1 -28 10 -45 45 -81 69 -72 155 -78 182
-12 32 77 26 123 -42 333 -36 108 -67 203 -71 211 -3 8 -7 20 -9 25 -1 6 -27
87 -58 180 -49 148 -114 372 -130 446 -3 13 -14 64 -25 112 -26 113 -50 276
-53 352 -1 51 6 77 44 170 106 254 139 399 133 580 -5 118 -9 149 -36 234 -56
179 -166 308 -307 361 -66 25 -196 36 -229 19z m233 -214 c92 -97 142 -331
109 -510 -8 -44 -18 -98 -21 -120 -23 -152 -31 -174 -80 -233 -74 -87 -82 -94
-86 -85 -6 10 -3 287 7 603 4 135 8 275 7 313 0 80 13 86 64 32z"/>
<path d="M2568 3078 c-5 -13 -5 -39 7 -895 6 -493 6 -513 -12 -514 -96 -5
-134 -8 -170 -13 -24 -2 -79 -8 -123 -12 l-80 -6 0 33 c-7 450 -9 572 -16 664
-9 124 -11 526 -4 625 l4 65 -54 28 c-52 26 -104 34 -126 19 -29 -19 -32 -55
-28 -367 9 -832 19 -1191 49 -1675 11 -172 33 -441 40 -490 2 -14 7 -50 10
-80 3 -30 8 -62 10 -70 2 -8 7 -35 10 -60 15 -109 58 -231 89 -252 22 -15 53
-7 77 18 23 25 24 31 24 172 -1 132 -9 343 -20 492 -31 425 -34 480 -40 636
-6 145 -9 138 60 152 57 13 295 8 304 -6 4 -7 9 -52 10 -100 2 -48 4 -114 6
-147 8 -153 17 -581 19 -881 3 -323 4 -333 25 -367 42 -69 139 -57 178 22 15
31 18 62 17 221 -1 175 -9 510 -19 775 -10 279 -16 445 -20 520 -2 44 -7 170
-11 280 -3 110 -8 229 -9 265 -1 36 -5 214 -9 395 -7 373 -11 426 -33 469 -21
41 -35 53 -85 76 -50 23 -74 25 -80 8z"/>
</g>
</svg>
